<mxfile host="Electron" agent="Mozilla/5.0 (Windows NT 10.0; Win64; x64) AppleWebKit/537.36 (KHTML, like Gecko) draw.io/24.7.5 Chrome/126.0.6478.183 Electron/31.3.0 Safari/537.36" version="24.7.5">
  <diagram name="Page-1" id="A59UjSmvhJEWi5CW_TTW">
    <mxGraphModel dx="2823" dy="813" grid="0" gridSize="10" guides="1" tooltips="1" connect="1" arrows="1" fold="1" page="0" pageScale="1" pageWidth="827" pageHeight="1169" background="none" math="0" shadow="0">
      <root>
        <mxCell id="0" />
        <mxCell id="1" parent="0" />
        <mxCell id="UxlZ6HtpBsIf8WyhJ8Vz-1" value="diamond_kata" style="swimlane;whiteSpace=wrap;html=1;rounded=0;align=left;labelPosition=center;verticalLabelPosition=middle;verticalAlign=middle;spacingLeft=15;" parent="1" vertex="1">
          <mxGeometry x="-1518" y="160" width="756" height="397" as="geometry" />
        </mxCell>
        <mxCell id="eknpGqlmoUOFxj3JfqDk-26" style="rounded=0;orthogonalLoop=1;jettySize=auto;html=1;edgeStyle=elbowEdgeStyle;" parent="UxlZ6HtpBsIf8WyhJ8Vz-1" source="eknpGqlmoUOFxj3JfqDk-5" target="eknpGqlmoUOFxj3JfqDk-27" edge="1">
          <mxGeometry relative="1" as="geometry" />
        </mxCell>
        <mxCell id="eknpGqlmoUOFxj3JfqDk-5" value="public class ConsoleWriter : IOutputWriter" style="swimlane;fontStyle=0;childLayout=stackLayout;horizontal=1;startSize=30;horizontalStack=0;resizeParent=1;resizeParentMax=0;resizeLast=0;collapsible=1;marginBottom=0;whiteSpace=wrap;html=1;flipH=0;flipV=0;strokeColor=default;align=left;verticalAlign=middle;spacingLeft=15;fontFamily=Helvetica;fontSize=12;fontColor=default;fillColor=default;" parent="UxlZ6HtpBsIf8WyhJ8Vz-1" vertex="1">
          <mxGeometry x="418" y="160" width="320" height="60" as="geometry" />
        </mxCell>
        <mxCell id="eknpGqlmoUOFxj3JfqDk-27" value="public class Program" style="swimlane;fontStyle=0;childLayout=stackLayout;horizontal=1;startSize=30;horizontalStack=0;resizeParent=1;resizeParentMax=0;resizeLast=0;collapsible=1;marginBottom=0;whiteSpace=wrap;html=1;align=left;spacingLeft=15;" parent="UxlZ6HtpBsIf8WyhJ8Vz-1" vertex="1">
          <mxGeometry x="290.5" y="40" width="175" height="90" as="geometry" />
        </mxCell>
        <mxCell id="eknpGqlmoUOFxj3JfqDk-28" value="public static Main()" style="text;strokeColor=none;fillColor=none;align=left;verticalAlign=middle;spacingLeft=4;spacingRight=4;overflow=hidden;points=[[0,0.5],[1,0.5]];portConstraint=eastwest;rotatable=0;whiteSpace=wrap;html=1;" parent="eknpGqlmoUOFxj3JfqDk-27" vertex="1">
          <mxGeometry y="30" width="175" height="30" as="geometry" />
        </mxCell>
        <mxCell id="5WS_XkgS-DaxyU74psKp-1" value="private static char GetInput()" style="text;strokeColor=none;fillColor=none;align=left;verticalAlign=middle;spacingLeft=4;spacingRight=4;overflow=hidden;points=[[0,0.5],[1,0.5]];portConstraint=eastwest;rotatable=0;whiteSpace=wrap;html=1;" parent="eknpGqlmoUOFxj3JfqDk-27" vertex="1">
          <mxGeometry y="60" width="175" height="30" as="geometry" />
        </mxCell>
        <mxCell id="UxlZ6HtpBsIf8WyhJ8Vz-2" style="edgeStyle=elbowEdgeStyle;shape=connector;rounded=0;orthogonalLoop=1;jettySize=auto;html=1;strokeColor=default;align=center;verticalAlign=middle;fontFamily=Helvetica;fontSize=11;fontColor=default;labelBackgroundColor=default;endArrow=classic;" parent="UxlZ6HtpBsIf8WyhJ8Vz-1" source="eknpGqlmoUOFxj3JfqDk-1" target="eknpGqlmoUOFxj3JfqDk-27" edge="1">
          <mxGeometry relative="1" as="geometry" />
        </mxCell>
        <mxCell id="eknpGqlmoUOFxj3JfqDk-1" value="public class DiamondGenrator : IDiamondGenerator" style="swimlane;fontStyle=0;childLayout=stackLayout;horizontal=1;startSize=30;horizontalStack=0;resizeParent=1;resizeParentMax=0;resizeLast=0;collapsible=1;marginBottom=0;whiteSpace=wrap;html=1;flipH=0;flipV=0;strokeColor=default;align=left;verticalAlign=middle;spacingLeft=15;fontFamily=Helvetica;fontSize=12;fontColor=default;fillColor=default;" parent="UxlZ6HtpBsIf8WyhJ8Vz-1" vertex="1">
          <mxGeometry x="18" y="160" width="360" height="120" as="geometry" />
        </mxCell>
        <mxCell id="VUsCgGRnpULj7H-oqZ3k-5" value="private string GenerateLine(char letter, int leadingSpaces)" style="text;strokeColor=none;fillColor=none;align=left;verticalAlign=middle;spacingLeft=4;spacingRight=4;overflow=hidden;points=[[0,0.5],[1,0.5]];portConstraint=eastwest;rotatable=0;whiteSpace=wrap;html=1;" vertex="1" parent="eknpGqlmoUOFxj3JfqDk-1">
          <mxGeometry y="30" width="360" height="30" as="geometry" />
        </mxCell>
        <mxCell id="VUsCgGRnpULj7H-oqZ3k-4" value="private int GetCharacterIndex(char inputChar)" style="text;strokeColor=none;fillColor=none;align=left;verticalAlign=middle;spacingLeft=4;spacingRight=4;overflow=hidden;points=[[0,0.5],[1,0.5]];portConstraint=eastwest;rotatable=0;whiteSpace=wrap;html=1;" vertex="1" parent="eknpGqlmoUOFxj3JfqDk-1">
          <mxGeometry y="60" width="360" height="30" as="geometry" />
        </mxCell>
        <mxCell id="VUsCgGRnpULj7H-oqZ3k-3" value="private char ValidateAndNormalizeInput(char inputChar)" style="text;strokeColor=none;fillColor=none;align=left;verticalAlign=middle;spacingLeft=4;spacingRight=4;overflow=hidden;points=[[0,0.5],[1,0.5]];portConstraint=eastwest;rotatable=0;whiteSpace=wrap;html=1;" vertex="1" parent="eknpGqlmoUOFxj3JfqDk-1">
          <mxGeometry y="90" width="360" height="30" as="geometry" />
        </mxCell>
        <mxCell id="VUsCgGRnpULj7H-oqZ3k-1" style="edgeStyle=orthogonalEdgeStyle;rounded=0;orthogonalLoop=1;jettySize=auto;html=1;" edge="1" parent="UxlZ6HtpBsIf8WyhJ8Vz-1" source="eknpGqlmoUOFxj3JfqDk-20" target="eknpGqlmoUOFxj3JfqDk-1">
          <mxGeometry relative="1" as="geometry" />
        </mxCell>
        <mxCell id="eknpGqlmoUOFxj3JfqDk-20" value="public interface IDiamondGenerator" style="swimlane;fontStyle=0;childLayout=stackLayout;horizontal=1;startSize=30;horizontalStack=0;resizeParent=1;resizeParentMax=0;resizeLast=0;collapsible=1;marginBottom=0;whiteSpace=wrap;html=1;strokeColor=default;align=left;verticalAlign=middle;spacingLeft=15;fontFamily=Helvetica;fontSize=12;fontColor=default;fillColor=default;" parent="UxlZ6HtpBsIf8WyhJ8Vz-1" vertex="1">
          <mxGeometry x="18" y="310" width="360" height="60" as="geometry" />
        </mxCell>
        <mxCell id="eknpGqlmoUOFxj3JfqDk-21" value="public string[] CreateDiamond(char inputCar)" style="text;strokeColor=none;fillColor=none;align=left;verticalAlign=middle;spacingLeft=4;spacingRight=4;overflow=hidden;points=[[0,0.5],[1,0.5]];portConstraint=eastwest;rotatable=0;whiteSpace=wrap;html=1;fontFamily=Helvetica;fontSize=12;fontColor=default;fontStyle=0;" parent="eknpGqlmoUOFxj3JfqDk-20" vertex="1">
          <mxGeometry y="30" width="360" height="30" as="geometry" />
        </mxCell>
        <mxCell id="VUsCgGRnpULj7H-oqZ3k-2" style="edgeStyle=orthogonalEdgeStyle;rounded=0;orthogonalLoop=1;jettySize=auto;html=1;" edge="1" parent="UxlZ6HtpBsIf8WyhJ8Vz-1" source="eknpGqlmoUOFxj3JfqDk-15" target="eknpGqlmoUOFxj3JfqDk-5">
          <mxGeometry relative="1" as="geometry" />
        </mxCell>
        <mxCell id="eknpGqlmoUOFxj3JfqDk-15" value="&lt;span class=&quot;hljs-keyword&quot;&gt;public&lt;/span&gt; &lt;span class=&quot;hljs-keyword&quot;&gt;interface&lt;/span&gt; &lt;span class=&quot;hljs-title&quot;&gt;IOutputWriter&lt;/span&gt;" style="swimlane;fontStyle=0;childLayout=stackLayout;horizontal=1;startSize=30;horizontalStack=0;resizeParent=1;resizeParentMax=0;resizeLast=0;collapsible=1;marginBottom=0;whiteSpace=wrap;html=1;strokeColor=default;align=left;verticalAlign=middle;spacingLeft=15;fontFamily=Helvetica;fontSize=12;fontColor=default;fillColor=default;" parent="UxlZ6HtpBsIf8WyhJ8Vz-1" vertex="1">
          <mxGeometry x="418" y="310" width="321" height="60" as="geometry" />
        </mxCell>
        <mxCell id="eknpGqlmoUOFxj3JfqDk-16" value="&lt;span class=&quot;hljs-keyword&quot;&gt;public void&lt;/span&gt; &lt;span class=&quot;hljs-title&quot;&gt;Write&lt;/span&gt;(&lt;span class=&quot;hljs-params&quot;&gt;&lt;span class=&quot;hljs-built_in&quot;&gt;string&lt;/span&gt;[] output&lt;/span&gt;)" style="text;strokeColor=none;fillColor=none;align=left;verticalAlign=middle;spacingLeft=4;spacingRight=4;overflow=hidden;points=[[0,0.5],[1,0.5]];portConstraint=eastwest;rotatable=0;whiteSpace=wrap;html=1;fontFamily=Helvetica;fontSize=12;fontColor=default;fontStyle=0;" parent="eknpGqlmoUOFxj3JfqDk-15" vertex="1">
          <mxGeometry y="30" width="321" height="30" as="geometry" />
        </mxCell>
        <mxCell id="VUsCgGRnpULj7H-oqZ3k-6" value="Actor" style="shape=umlActor;verticalLabelPosition=bottom;verticalAlign=top;html=1;fontFamily=Helvetica;fontSize=11;fontColor=default;labelBackgroundColor=default;" vertex="1" parent="1">
          <mxGeometry x="-734.9999999999995" y="215" width="30" height="60" as="geometry" />
        </mxCell>
        <mxCell id="VUsCgGRnpULj7H-oqZ3k-8" style="edgeStyle=orthogonalEdgeStyle;rounded=0;orthogonalLoop=1;jettySize=auto;html=1;" edge="1" parent="1" source="eknpGqlmoUOFxj3JfqDk-27" target="VUsCgGRnpULj7H-oqZ3k-6">
          <mxGeometry relative="1" as="geometry" />
        </mxCell>
      </root>
    </mxGraphModel>
  </diagram>
</mxfile>
